<?xml version="1.0" encoding="UTF-8" standalone="no"?>
<!-- Created with Inkscape (http://www.inkscape.org/) -->

<svg
   xmlns:dc="http://purl.org/dc/elements/1.1/"
   xmlns:cc="http://creativecommons.org/ns#"
   xmlns:rdf="http://www.w3.org/1999/02/22-rdf-syntax-ns#"
   xmlns:svg="http://www.w3.org/2000/svg"
   xmlns="http://www.w3.org/2000/svg"
   xmlns:sodipodi="http://sodipodi.sourceforge.net/DTD/sodipodi-0.dtd"
   xmlns:inkscape="http://www.inkscape.org/namespaces/inkscape"
   width="1044.1681"
   height="253.73451"
   id="svg2"
   version="1.1"
   inkscape:version="0.48.3.1 r9886"
   sodipodi:docname="logo.svg">
  <defs
     id="defs4" />
  <sodipodi:namedview
     id="base"
     pagecolor="#ffffff"
     bordercolor="#666666"
     borderopacity="1.0"
     inkscape:pageopacity="0.0"
     inkscape:pageshadow="2"
     inkscape:zoom="1"
     inkscape:cx="328.12129"
     inkscape:cy="352.74072"
     inkscape:document-units="px"
     inkscape:current-layer="layer1"
     showgrid="false"
     inkscape:window-width="1920"
     inkscape:window-height="1050"
     inkscape:window-x="0"
     inkscape:window-y="0"
     inkscape:window-maximized="1"
     fit-margin-top="0"
     fit-margin-left="0"
     fit-margin-right="0"
     fit-margin-bottom="0" />
  <metadata
     id="metadata7">
    <rdf:RDF>
      <cc:Work
         rdf:about="">
        <dc:format>image/svg+xml</dc:format>
        <dc:type
           rdf:resource="http://purl.org/dc/dcmitype/StillImage" />
        <dc:title></dc:title>
      </cc:Work>
    </rdf:RDF>
  </metadata>
  <g
     inkscape:label="Layer 1"
     inkscape:groupmode="layer"
     id="layer1"
     transform="translate(-0.59299469,-1.9949341)">
    <g
       style="font-size:254.17195129px;font-style:normal;font-variant:normal;font-weight:normal;font-stretch:normal;text-align:start;line-height:125%;letter-spacing:0px;word-spacing:0px;writing-mode:lr-tb;text-anchor:start;fill:#000000;fill-opacity:1;stroke:none;font-family:Quicksand;-inkscape-font-specification:Quicksand"
       id="text2985">
      <path
         d="m 104.77864,190.95354 c 0.76251,0.25417 1.52503,0.50834 2.28755,0.50834 2.03337,0 4.57509,-1.52503 5.33761,-3.81258 0,-0.25417 0.25417,-0.50834 0.25417,-0.50834 l 28.72143,-68.62643 28.9756,68.8806 0.25417,0.25417 c 0.50835,2.03338 2.7959,3.55841 4.82927,3.81258 l 0.76252,0 0.50834,0 c 1.01669,0 2.03338,-0.50834 3.05006,-1.27086 1.01669,-0.76251 1.77921,-1.7792 2.28755,-3.05006 L 228.56038,76.32199 c 1.27086,-3.050061 -0.25418,-6.608472 -3.30424,-7.879331 -2.79589,-1.270858 -6.60847,0.254175 -7.87933,3.304235 l -41.17585,98.110376 -28.72143,-68.37226 c -1.01669,-2.287542 -3.55841,-3.812576 -6.10013,-3.812576 -2.28755,0 -4.82927,1.525034 -5.84596,3.812576 L 106.81201,169.85727 65.381985,71.746894 c -1.016687,-3.05006 -4.82927,-4.575093 -7.87933,-3.304235 -2.795889,1.270859 -4.320922,4.82927 -3.050064,7.879331 L 101.22023,187.6493 c 0.50834,1.27086 1.27086,2.28755 2.54172,2.7959 0.25417,0.25417 0.50834,0.50834 1.01669,0.50834"
         style=""
         id="path3146" />
      <path
         d="m 335.07443,185.36176 c 0,3.30423 2.7959,6.10012 6.10013,6.10012 3.5584,0 6.3543,-2.79589 6.3543,-6.10012 l 0,-69.38895 c 0,-28.721398 -23.38385,-49.055183 -52.10525,-49.055183 -15.75865,0 -29.9923,7.116826 -39.39665,18.300381 l 0,-65.576364 c 0,-3.304232 -2.7959,-6.100126 -6.3543,-6.100126 -3.30423,0 -6.10013,2.795894 -6.10013,6.100126 l 0,94.297796 0,2.03337 0,69.38895 c 0,0.76251 0,1.27086 0.25417,2.03337 0.25417,0.76252 0.50835,1.27086 1.01669,2.03338 1.27086,1.27086 3.05007,2.03337 4.82927,2.03337 l 0.76251,0 0.50835,0 c 0.25417,0 0.50834,-0.25417 0.50834,-0.25417 1.7792,-0.50834 3.05007,-1.52503 3.81258,-3.05006 0.25417,-0.25417 0.25417,-0.50835 0.50834,-1.01669 0,-0.25417 0.25418,-0.50834 0.25418,-1.01669 l 0,-0.76251 0,-69.38895 c 0,-21.858762 17.79206,-36.600757 39.39665,-36.600757 21.85877,0 39.65082,14.741995 39.65082,36.600757 l 0,69.38895"
         style=""
         id="path3148" />
      <path
         d="m 418.96491,191.46188 c 21.09625,0 39.65083,-11.18358 50.32604,-28.21308 1.77921,-3.05006 0.76252,-6.60848 -2.03337,-8.64185 -2.54172,-1.52503 -6.3543,-1.01668 -8.1335,2.03338 -8.38767,13.97944 -23.63801,22.6213 -40.15917,22.6213 -25.67134,0 -47.02181,-20.58796 -48.29267,-47.78433 l 102.17712,0 c 3.30423,0 6.10013,-2.28755 6.10013,-5.59178 l 0,-0.76252 0,-0.25417 c -2.54172,-32.533975 -27.95895,-57.951203 -59.98458,-57.951203 -33.55067,0 -60.49293,27.95895 -60.49293,62.526303 0,34.059 26.94226,62.01795 60.49293,62.01795 m 0,-112.343999 c 22.87545,0 42.70089,17.029544 46.76764,40.413339 l -94.2978,0 c 4.57509,-23.637967 24.14636,-40.413339 47.53016,-40.413339"
         style=""
         id="path3150" />
      <path
         d="m 581.80441,185.36176 c 0,3.5584 2.7959,6.10012 6.10013,6.10012 3.30423,0 6.10013,-2.54172 6.10013,-6.10012 l 0,-67.60974 c 0,-27.704717 -22.62134,-50.580221 -50.58022,-50.580221 -15.50448,0 -29.48396,7.116826 -38.63414,18.046209 l 0,-11.946082 c 0,-3.304232 -2.54172,-6.100127 -5.84595,-6.100127 -3.55841,0 -6.10013,2.795895 -6.10013,6.100127 l 0,42.446714 0,2.03338 0,67.60974 0,1.52503 c 0,0 0.25417,0.25417 0.25417,0.50834 0,0.25417 0,0.50835 0.25417,0.76252 0.76252,1.52503 2.28755,2.79589 4.06675,3.30423 l 1.52504,0 c 1.7792,0 3.5584,-0.76251 4.57509,-2.28754 0.76252,-0.76252 1.01669,-1.77921 1.27086,-2.7959 l 0,-1.01668 0,-67.60974 c 0.50834,-21.096253 17.53789,-38.379967 38.63414,-38.379967 21.35042,0 38.37996,17.283714 38.37996,38.379967 l 0,67.60974"
         style=""
         id="path3152" />
      <path
         d="m 611.29247,237.46701 c 0,3.30423 2.7959,6.10012 6.10013,6.10012 3.5584,0 6.3543,-2.79589 6.3543,-6.10012 l 0,-71.16815 c 10.67521,14.74196 27.95893,24.40051 47.27598,24.40051 33.55066,0 60.23875,-28.21312 60.23875,-62.01796 0,-34.059006 -26.68809,-61.763783 -60.23875,-61.763783 -19.31705,0 -36.60077,9.658549 -47.27598,24.146336 l 0,-18.046209 c 0,-3.304232 -2.7959,-6.100127 -6.3543,-6.100127 -3.30423,0 -6.10013,2.795895 -6.10013,6.100127 l 0,53.121936 0,2.54172 0,2.54172 0,106.24388 M 623.7469,126.64804 c 1.01668,-26.43386 22.11298,-47.275987 47.27598,-47.275987 26.43386,0 47.78433,21.858817 47.78433,49.309357 0,27.45054 -21.35047,49.56353 -47.78433,49.8177 -25.67134,-0.25417 -47.27598,-22.36716 -47.27598,-49.8177 l 0,-2.03337"
         style=""
         id="path3154" />
      <path
         d="m 850.71402,66.917627 c -3.30423,0 -6.10012,2.541723 -6.10012,6.100127 l 0,18.300381 C 833.93869,76.576176 816.90913,66.917627 797.84626,66.917627 c -32.78815,0 -58.9679,28.213121 -58.9679,62.272133 0,34.059 26.17975,62.27212 58.9679,62.27212 19.06287,0 36.09243,-9.91272 46.76764,-24.65468 l 0,18.55456 c 0,3.30423 2.79589,6.10012 6.10012,6.10012 3.30424,0 6.10013,-2.79589 6.10013,-6.10012 l 0,-112.344006 c 0,-3.558404 -2.79589,-6.100127 -6.10013,-6.100127 M 797.84626,179.26163 c -25.41717,0 -46.76764,-22.11299 -46.76764,-50.07187 0,-27.95889 21.35047,-50.326051 46.76764,-50.326051 25.67134,0 46.76764,22.367161 46.76764,50.326051 0,27.95888 -21.0963,50.07187 -46.76764,50.07187"
         style=""
         id="path3156" />
      <path
         d="m 974.59603,185.36176 c 0,3.30423 2.79589,6.10012 6.3543,6.10012 3.30423,0 6.10012,-2.79589 6.10012,-6.10012 l 0,-55.91783 0,-2.54172 0,-107.260566 c 0,-3.304232 -2.79589,-6.100126 -6.10012,-6.100126 -3.55841,0 -6.3543,2.795894 -6.3543,6.100126 l 0,71.676491 C 963.66665,76.576176 946.38292,66.917627 926.8117,66.917627 c -33.55066,0 -60.23875,27.95895 -60.23875,62.526303 0,34.059 26.68809,62.01795 60.23875,62.01795 19.57122,0 36.85495,-9.40437 47.78433,-24.14633 l 0,18.04621 m -47.78433,-6.3543 c -26.17968,0 -47.78433,-22.11299 -47.78433,-49.56353 0,-27.70472 21.60465,-50.071877 47.78433,-50.071877 25.67134,0 46.76764,21.350467 47.78433,48.038497 l 0,4.06675 c -1.01669,26.43386 -22.11299,47.53016 -47.78433,47.53016"
         style=""
         id="path3158" />
    </g>
    <text
       xml:space="preserve"
       style="font-size:34.28244781px;font-style:normal;font-variant:normal;font-weight:normal;font-stretch:normal;text-align:start;line-height:125%;letter-spacing:0px;word-spacing:0px;writing-mode:lr-tb;text-anchor:start;fill:#000000;fill-opacity:1;stroke:none;font-family:Quicksand;-inkscape-font-specification:Quicksand"
       x="18.134277"
       y="-37.285652"
       id="text2985-0"
       sodipodi:linespacing="125%"><tspan
         sodipodi:role="line"
         id="tspan2987-6"
         x="18.134277"
         y="-37.285652"
         dx="0 -5.0486078 -4.3273783 -3.9667633 -5.0486078 -3.606148 -4.687993">whenpad</tspan></text>
  </g>
</svg>
